# xmcd
#
# Track frame offsets:
#	150
#	16192
#	42337
#	55115
#	75042
#	100585
#	119222
#	138127
#	155065
#	178365
#	194035
#	214635
#	232710
#	255200
#	283835
#
# Disc length: 4208 seconds
#
# Revision: 1
# Processed by: cddbd v1.5.1PL0 Copyright (c) Steve Scherf et al.
# Submitted via: dBpowerAMP V4.0
#
DISCID=c5106e0f
DTITLE=Ibrahim Tatlises - Aci Gerçekler
DYEAR=1900
DGENRE=Blues
TTITLE0=Bu da Geçer
TTITLE1=Aci Gerçekler
TTITLE2=Ölürsem kabrime gelme istemem
TTITLE3=Seni yakacaklar
TTITLE4=Gülmemiz gerek
TTITLE5=Hiç kimseye sözüm yok
TTITLE6=Topragin oglu Sabuha
TTITLE7=Ayrilik kolay degil
TTITLE8=Ayaginda kundura
TTITLE9=Indim gülün bagina
TTITLE10=Mutlu ol yeter
TTITLE11=Bir kulunu çok sevdim
TTITLE12=Yasamak bu degil
TTITLE13=Hepsi geçer
TTITLE14=Nasil isyan etmem
EXTD=Aci Gerçekler
EXTT0=
EXTT1=
EXTT2=
EXTT3=
EXTT4=
EXTT5=
EXTT6=
EXTT7=
EXTT8=
EXTT9=
EXTT10=
EXTT11=
EXTT12=
EXTT13=
EXTT14=
PLAYORDER=
